# xmcd CD database file
#
# Track frame offsets:
#	150
#	37901
#	61729
#	80814
#	110996
#	142955
#	181948
#	207136
#	240206
#
# Disc length: 3438 seconds
#
# Revision: 0
# Processed by: cddbd v1.5.2PL0 Copyright (c) Steve Scherf et al.
# Submitted via: CDex 1.70beta2
#
DISCID=710d6c09
DTITLE=Jonathan Moritz Tro - Xanadu
DYEAR=2000
DGENRE=Jazz
TTITLE0=Ant Ethics
TTITLE1=Snipit
TTITLE2=City Life
TTITLE3=Xanadu
TTITLE4=Laguna's Blue Piano
TTITLE5=Doxy
TTITLE6=Trough My Eyes
TTITLE7=Lonnie's Lament
TTITLE8=Pass The Yuice
EXTD=YEAR: 2000
EXTT0=
EXTT1=
EXTT2=
EXTT3=
EXTT4=
EXTT5=
EXTT6=
EXTT7=
EXTT8=
PLAYORDER=
